<svg xmlns="http://www.w3.org/2000/svg" viewBox="0 0 64 64" role="img" aria-labelledby="title desc">
  <title>Avivamiento candle flame icon</title>
  <desc>A candle with a glowing flame.</desc>
  <defs>
    <linearGradient id="bg" x1="0" y1="0" x2="1" y2="1">
      <stop offset="0%" stop-color="#0f172a" />
      <stop offset="100%" stop-color="#1d4ed8" />
    </linearGradient>
    <linearGradient id="wax" x1="0" y1="0" x2="0" y2="1">
      <stop offset="0%" stop-color="#fff8dc" />
      <stop offset="100%" stop-color="#f3d9a3" />
    </linearGradient>
    <linearGradient id="flameOuter" x1="0" y1="0" x2="0" y2="1">
      <stop offset="0%" stop-color="#fde68a" />
      <stop offset="60%" stop-color="#f59e0b" />
      <stop offset="100%" stop-color="#dc2626" />
    </linearGradient>
    <linearGradient id="flameInner" x1="0" y1="0" x2="0" y2="1">
      <stop offset="0%" stop-color="#fff7ed" />
      <stop offset="100%" stop-color="#fef08a" />
    </linearGradient>
  </defs>
  <rect width="64" height="64" rx="16" fill="url(#bg)" />
  <ellipse cx="32" cy="52" rx="18" ry="5" fill="#0b1220" opacity="0.28" />
  <path d="M32 8c5 7 7 12 7 17 0 7-4 12-7 12s-7-5-7-12c0-4 2-10 7-17Z" fill="url(#flameOuter)" />
  <path d="M32 15c3 4 4 7 4 10 0 4-2 7-4 7s-4-3-4-7c0-3 1-6 4-10Z" fill="url(#flameInner)" />
  <rect x="24" y="34" width="16" height="18" rx="4" fill="url(#wax)" />
  <rect x="23" y="51" width="18" height="4" rx="2" fill="#d6b773" />
  <rect x="30.5" y="29" width="3" height="8" rx="1.5" fill="#1f2937" />
</svg>
